<?xml version="1.0" encoding="UTF-8"?>
<svg id="Camada_2" data-name="Camada 2" xmlns="http://www.w3.org/2000/svg" width="278.5" height="278.5" viewBox="0 0 278.5 278.5">
  <defs>
    <style>
      .cls-1 {
        fill: #e40625;
      }
    </style>
  </defs>
  <g id="Camada_1-2" data-name="Camada 1">
    <g>
      <path class="cls-1" d="m51.668,94.366l-42.548-4.758C3.234,105.029,0,121.76,0,139.25c0,16.648,2.926,32.611,8.284,47.409l32.654,3.652,10.73-95.945Z"/>
      <path class="cls-1" d="m238.906,190.311l31.255-3.495c5.394-14.842,8.339-30.859,8.339-47.565,0-17.435-3.214-34.117-9.065-49.499l-41.259,4.614,10.73,95.945Z"/>
      <polygon class="cls-1" points="145.233 115.507 133.276 115.507 133.276 95.823 85.703 95.823 85.703 192.367 192.797 192.367 192.797 95.823 145.233 95.823 145.233 115.507"/>
      <path class="cls-1" d="m231.991,220.507l-15.199-135.901,48.137-5.383C242.509,32.366,194.661,0,139.25,0S36.087,32.3,13.638,79.08l49.414,5.526-15.199,135.901-23.538-2.632c25.09,36.606,67.205,60.625,114.935,60.625s89.72-23.948,114.822-60.462l-22.082,2.47Zm-28.966,1.1h-127.55V84.859h57.801v-42.955h11.958v42.955h57.792v136.748Z"/>
    </g>
  </g>
</svg>